<?xml version="1.0" standalone="no"?><!DOCTYPE svg PUBLIC "-//W3C//DTD SVG 1.1//EN" "http://www.w3.org/Graphics/SVG/1.1/DTD/svg11.dtd"><svg class="icon" width="200px" height="200.00px" viewBox="0 0 1024 1024" version="1.1" xmlns="http://www.w3.org/2000/svg"><path fill="#1296db" d="M757.333333 576a32 32 0 0 1 32 32V725.333333h117.333334a32 32 0 0 1 0 64H789.333333v117.333334a32 32 0 0 1-64 0V789.333333h-117.333333a32 32 0 0 1 0-64H725.333333v-117.333333a32 32 0 0 1 32-32zM448 96c135.488 0 245.333333 109.845333 245.333333 245.333333 0 86.954667-45.226667 163.328-113.450666 206.912a350.933333 350.933333 0 0 1 103.338666 64.554667 32 32 0 1 1-42.794666 47.573333A286.762667 286.762667 0 0 0 448 586.666667c-159.061333 0-288 128.938667-288 288 0 6.592 0.213333 13.141333 0.64 19.669333a32 32 0 1 1-63.829333 4.309333A356.736 356.736 0 0 1 96 874.666667c0-147.776 91.050667-274.282667 220.117333-326.464A245.034667 245.034667 0 0 1 202.666667 341.333333C202.666667 205.845333 312.512 96 448 96z m0 64a181.333333 181.333333 0 1 0 0 362.666667 181.333333 181.333333 0 0 0 0-362.666667z"  /></svg>